<?xml version="1.0" encoding="UTF-8" standalone="no"?>
<!DOCTYPE svg PUBLIC "-//W3C//DTD SVG 1.1//EN"
 "http://www.w3.org/Graphics/SVG/1.1/DTD/svg11.dtd">
<!-- Generated by graphviz version 2.38.0 (20140413.2041)
 -->
<!-- Title: controllers_diagram Pages: 1 -->
<svg width="376pt" height="229pt"
 viewBox="0.00 0.00 375.96 229.00" xmlns="http://www.w3.org/2000/svg" xmlns:xlink="http://www.w3.org/1999/xlink">
<g id="graph0" class="graph" transform="scale(1 1) rotate(0) translate(68.2725 113.5)">
<title>controllers_diagram</title>
<polygon fill="none" stroke="none" points="-68.2725,115.5 -68.2725,-113.5 307.688,-113.5 307.688,115.5 -68.2725,115.5"/>
<!-- _diagram_info -->
<g id="node1" class="node"><title>_diagram_info</title>
<text text-anchor="start" x="104.312" y="36.9" font-family="Times,serif" font-size="13.00">Controllers diagram</text>
<text text-anchor="start" x="104.312" y="49.9" font-family="Times,serif" font-size="13.00">Date: Aug 20 2016 &#45; 23:12</text>
<text text-anchor="start" x="104.312" y="62.9" font-family="Times,serif" font-size="13.00">Migration version: 20160820005348</text>
<text text-anchor="start" x="104.312" y="75.9" font-family="Times,serif" font-size="13.00">Generated by RailRoady 1.5.1</text>
<text text-anchor="start" x="104.312" y="88.9" font-family="Times,serif" font-size="13.00">http://railroady.prestonlee.com</text>
</g>
<!-- ApplicationController -->
<g id="node2" class="node"><title>ApplicationController</title>
<path fill="none" stroke="black" d="M108.179,-17C108.179,-17 223.821,-17 223.821,-17 229.821,-17 235.821,-23 235.821,-29 235.821,-29 235.821,-97 235.821,-97 235.821,-103 229.821,-109 223.821,-109 223.821,-109 108.179,-109 108.179,-109 102.179,-109 96.1792,-103 96.1792,-97 96.1792,-97 96.1792,-29 96.1792,-29 96.1792,-23 102.179,-17 108.179,-17"/>
<text text-anchor="middle" x="166" y="-93.8" font-family="Times,serif" font-size="14.00">ApplicationController</text>
<polyline fill="none" stroke="black" points="96.1792,-87 235.821,-87 "/>
<polyline fill="none" stroke="black" points="96.1792,-63 235.821,-63 "/>
<polyline fill="none" stroke="black" points="96.1792,-39 235.821,-39 "/>
<text text-anchor="start" x="104.179" y="-23.8" font-family="Times,serif" font-size="14.00">_layout</text>
</g>
<!-- ProductsController -->
<g id="node3" class="node"><title>ProductsController</title>
<path fill="none" stroke="black" d="M-52.2725,111C-52.2725,111 46.2725,111 46.2725,111 52.2725,111 58.2725,105 58.2725,99 58.2725,99 58.2725,-79 58.2725,-79 58.2725,-85 52.2725,-91 46.2725,-91 46.2725,-91 -52.2725,-91 -52.2725,-91 -58.2725,-91 -64.2725,-85 -64.2725,-79 -64.2725,-79 -64.2725,99 -64.2725,99 -64.2725,105 -58.2725,111 -52.2725,111"/>
<text text-anchor="middle" x="-3" y="-75.8" font-family="Times,serif" font-size="14.00">ProductsController</text>
<polyline fill="none" stroke="black" points="-64.2725,-69 58.2725,-69 "/>
<text text-anchor="start" x="-56.2725" y="-53.8" font-family="Times,serif" font-size="14.00">index</text>
<text text-anchor="start" x="-56.2725" y="-39.8" font-family="Times,serif" font-size="14.00">destroy</text>
<text text-anchor="start" x="-56.2725" y="-25.8" font-family="Times,serif" font-size="14.00">edit</text>
<text text-anchor="start" x="-56.2725" y="-11.8" font-family="Times,serif" font-size="14.00">create</text>
<text text-anchor="start" x="-56.2725" y="2.2" font-family="Times,serif" font-size="14.00">new</text>
<text text-anchor="start" x="-56.2725" y="16.2" font-family="Times,serif" font-size="14.00">show</text>
<text text-anchor="start" x="-56.2725" y="30.2" font-family="Times,serif" font-size="14.00">update</text>
<polyline fill="none" stroke="black" points="-64.2725,37 58.2725,37 "/>
<polyline fill="none" stroke="black" points="-64.2725,61 58.2725,61 "/>
<text text-anchor="start" x="-56.2725" y="76.2" font-family="Times,serif" font-size="14.00">_layout</text>
<text text-anchor="start" x="-56.2725" y="90.2" font-family="Times,serif" font-size="14.00">product_params</text>
<text text-anchor="start" x="-56.2725" y="104.2" font-family="Times,serif" font-size="14.00">set_product</text>
</g>
</g>
</svg>
