<?xml version="1.0" encoding="UTF-8" standalone="no"?>
<!DOCTYPE svg PUBLIC "-//W3C//DTD SVG 1.1//EN"
 "http://www.w3.org/Graphics/SVG/1.1/DTD/svg11.dtd">
<!-- Generated by graphviz version 2.38.0 (20140413.2041)
 -->
<!-- Title: models_diagram Pages: 1 -->
<svg width="947pt" height="758pt"
 viewBox="0.00 0.00 947.32 758.00" xmlns="http://www.w3.org/2000/svg" xmlns:xlink="http://www.w3.org/1999/xlink">
<g id="graph0" class="graph" transform="scale(1 1) rotate(0) translate(4 754)">
<title>models_diagram</title>
<polygon fill="none" stroke="none" points="-4,4 -4,-754 943.323,-754 943.323,4 -4,4"/>
<!-- _diagram_info -->
<g id="node1" class="node"><title>_diagram_info</title>
<text text-anchor="start" x="8" y="-665.6" font-family="Times,serif" font-size="13.00">Models diagram</text>
<text text-anchor="start" x="8" y="-652.6" font-family="Times,serif" font-size="13.00">Date: Aug 20 2016 &#45; 23:12</text>
<text text-anchor="start" x="8" y="-639.6" font-family="Times,serif" font-size="13.00">Migration version: 20160820005348</text>
<text text-anchor="start" x="8" y="-626.6" font-family="Times,serif" font-size="13.00">Generated by RailRoady 1.5.1</text>
<text text-anchor="start" x="8" y="-613.6" font-family="Times,serif" font-size="13.00">http://railroady.prestonlee.com</text>
</g>
<!-- AdminUser -->
<g id="node2" class="node"><title>AdminUser</title>
<path fill="none" stroke="black" d="M237.053,-537.5C237.053,-537.5 532.323,-537.5 532.323,-537.5 538.323,-537.5 544.323,-543.5 544.323,-549.5 544.323,-549.5 544.323,-737.5 544.323,-737.5 544.323,-743.5 538.323,-749.5 532.323,-749.5 532.323,-749.5 237.053,-749.5 237.053,-749.5 231.053,-749.5 225.053,-743.5 225.053,-737.5 225.053,-737.5 225.053,-549.5 225.053,-549.5 225.053,-543.5 231.053,-537.5 237.053,-537.5"/>
<text text-anchor="middle" x="384.688" y="-734.3" font-family="Times,serif" font-size="14.00">AdminUser</text>
<polyline fill="none" stroke="black" points="225.053,-727.5 544.323,-727.5 "/>
<text text-anchor="start" x="233.053" y="-712.3" font-family="Times,serif" font-size="14.00">updated_at :timestamp without time zone</text>
<text text-anchor="start" x="233.053" y="-698.3" font-family="Times,serif" font-size="14.00">email :character varying</text>
<text text-anchor="start" x="233.053" y="-684.3" font-family="Times,serif" font-size="14.00">encrypted_password :character varying</text>
<text text-anchor="start" x="233.053" y="-670.3" font-family="Times,serif" font-size="14.00">reset_password_token :character varying</text>
<text text-anchor="start" x="233.053" y="-656.3" font-family="Times,serif" font-size="14.00">reset_password_sent_at :timestamp without time zone</text>
<text text-anchor="start" x="233.053" y="-642.3" font-family="Times,serif" font-size="14.00">remember_created_at :timestamp without time zone</text>
<text text-anchor="start" x="233.053" y="-628.3" font-family="Times,serif" font-size="14.00">sign_in_count :integer</text>
<text text-anchor="start" x="233.053" y="-614.3" font-family="Times,serif" font-size="14.00">current_sign_in_at :timestamp without time zone</text>
<text text-anchor="start" x="233.053" y="-600.3" font-family="Times,serif" font-size="14.00">last_sign_in_at :timestamp without time zone</text>
<text text-anchor="start" x="233.053" y="-586.3" font-family="Times,serif" font-size="14.00">current_sign_in_ip :inet</text>
<text text-anchor="start" x="233.053" y="-572.3" font-family="Times,serif" font-size="14.00">last_sign_in_ip :inet</text>
<text text-anchor="start" x="233.053" y="-558.3" font-family="Times,serif" font-size="14.00">created_at :timestamp without time zone</text>
<text text-anchor="start" x="233.053" y="-544.3" font-family="Times,serif" font-size="14.00">id :integer</text>
</g>
<!-- Category -->
<g id="node3" class="node"><title>Category</title>
<path fill="none" stroke="black" d="M573.825,-600.5C573.825,-600.5 797.55,-600.5 797.55,-600.5 803.55,-600.5 809.55,-606.5 809.55,-612.5 809.55,-612.5 809.55,-674.5 809.55,-674.5 809.55,-680.5 803.55,-686.5 797.55,-686.5 797.55,-686.5 573.825,-686.5 573.825,-686.5 567.825,-686.5 561.825,-680.5 561.825,-674.5 561.825,-674.5 561.825,-612.5 561.825,-612.5 561.825,-606.5 567.825,-600.5 573.825,-600.5"/>
<text text-anchor="middle" x="685.688" y="-671.3" font-family="Times,serif" font-size="14.00">Category</text>
<polyline fill="none" stroke="black" points="561.825,-664.5 809.55,-664.5 "/>
<text text-anchor="start" x="569.825" y="-649.3" font-family="Times,serif" font-size="14.00">id :integer</text>
<text text-anchor="start" x="569.825" y="-635.3" font-family="Times,serif" font-size="14.00">name :character varying</text>
<text text-anchor="start" x="569.825" y="-621.3" font-family="Times,serif" font-size="14.00">created_at :timestamp without time zone</text>
<text text-anchor="start" x="569.825" y="-607.3" font-family="Times,serif" font-size="14.00">updated_at :timestamp without time zone</text>
</g>
<!-- Product -->
<g id="node5" class="node"><title>Product</title>
<path fill="none" stroke="black" d="M573.825,-386.5C573.825,-386.5 797.55,-386.5 797.55,-386.5 803.55,-386.5 809.55,-392.5 809.55,-398.5 809.55,-398.5 809.55,-488.5 809.55,-488.5 809.55,-494.5 803.55,-500.5 797.55,-500.5 797.55,-500.5 573.825,-500.5 573.825,-500.5 567.825,-500.5 561.825,-494.5 561.825,-488.5 561.825,-488.5 561.825,-398.5 561.825,-398.5 561.825,-392.5 567.825,-386.5 573.825,-386.5"/>
<text text-anchor="middle" x="685.688" y="-485.3" font-family="Times,serif" font-size="14.00">Product</text>
<polyline fill="none" stroke="black" points="561.825,-478.5 809.55,-478.5 "/>
<text text-anchor="start" x="569.825" y="-463.3" font-family="Times,serif" font-size="14.00">id :integer</text>
<text text-anchor="start" x="569.825" y="-449.3" font-family="Times,serif" font-size="14.00">name :character varying</text>
<text text-anchor="start" x="569.825" y="-435.3" font-family="Times,serif" font-size="14.00">stock :integer</text>
<text text-anchor="start" x="569.825" y="-421.3" font-family="Times,serif" font-size="14.00">category_id :integer</text>
<text text-anchor="start" x="569.825" y="-407.3" font-family="Times,serif" font-size="14.00">created_at :timestamp without time zone</text>
<text text-anchor="start" x="569.825" y="-393.3" font-family="Times,serif" font-size="14.00">updated_at :timestamp without time zone</text>
</g>
<!-- Category&#45;&gt;Product -->
<g id="edge1" class="edge"><title>Category&#45;&gt;Product</title>
<path fill="none" stroke="#15f50d" d="M685.688,-591.991C685.688,-567.416 685.688,-537.547 685.688,-511.132"/>
<ellipse fill="none" stroke="#15f50d" cx="685.688" cy="-596.024" rx="4" ry="4"/>
<polygon fill="#15f50d" stroke="#15f50d" points="685.688,-510.816 690.188,-500.816 685.688,-505.816 685.688,-500.816 685.688,-500.816 685.688,-500.816 685.688,-505.816 681.188,-500.816 685.688,-510.816 685.688,-510.816"/>
</g>
<!-- Order -->
<g id="node4" class="node"><title>Order</title>
<path fill="none" stroke="black" d="M573.825,-0.5C573.825,-0.5 797.55,-0.5 797.55,-0.5 803.55,-0.5 809.55,-6.5 809.55,-12.5 809.55,-12.5 809.55,-88.5 809.55,-88.5 809.55,-94.5 803.55,-100.5 797.55,-100.5 797.55,-100.5 573.825,-100.5 573.825,-100.5 567.825,-100.5 561.825,-94.5 561.825,-88.5 561.825,-88.5 561.825,-12.5 561.825,-12.5 561.825,-6.5 567.825,-0.5 573.825,-0.5"/>
<text text-anchor="middle" x="685.688" y="-85.3" font-family="Times,serif" font-size="14.00">Order</text>
<polyline fill="none" stroke="black" points="561.825,-78.5 809.55,-78.5 "/>
<text text-anchor="start" x="569.825" y="-63.3" font-family="Times,serif" font-size="14.00">id :integer</text>
<text text-anchor="start" x="569.825" y="-49.3" font-family="Times,serif" font-size="14.00">user_id :integer</text>
<text text-anchor="start" x="569.825" y="-35.3" font-family="Times,serif" font-size="14.00">product_id :integer</text>
<text text-anchor="start" x="569.825" y="-21.3" font-family="Times,serif" font-size="14.00">created_at :timestamp without time zone</text>
<text text-anchor="start" x="569.825" y="-7.3" font-family="Times,serif" font-size="14.00">updated_at :timestamp without time zone</text>
</g>
<!-- Product&#45;&gt;Order -->
<g id="edge2" class="edge"><title>Product&#45;&gt;Order</title>
<path fill="none" stroke="#7e278b" d="M625.804,-379.579C619.649,-370.233 614.328,-360.271 610.688,-350 579.06,-260.773 577.336,-225.597 610.688,-137 614.378,-127.197 619.759,-117.786 625.972,-109.025"/>
<ellipse fill="none" stroke="#7e278b" cx="628.149" cy="-382.979" rx="4.00002" ry="4.00002"/>
<polygon fill="#7e278b" stroke="#7e278b" points="626.131,-108.814 635.747,-103.543 629.143,-104.823 632.156,-100.832 632.156,-100.832 632.156,-100.832 629.143,-104.823 628.564,-98.1212 626.131,-108.814 626.131,-108.814"/>
</g>
<!-- User -->
<g id="node6" class="node"><title>User</title>
<path fill="none" stroke="black" d="M632.053,-137.5C632.053,-137.5 927.323,-137.5 927.323,-137.5 933.323,-137.5 939.323,-143.5 939.323,-149.5 939.323,-149.5 939.323,-337.5 939.323,-337.5 939.323,-343.5 933.323,-349.5 927.323,-349.5 927.323,-349.5 632.053,-349.5 632.053,-349.5 626.053,-349.5 620.053,-343.5 620.053,-337.5 620.053,-337.5 620.053,-149.5 620.053,-149.5 620.053,-143.5 626.053,-137.5 632.053,-137.5"/>
<text text-anchor="middle" x="779.688" y="-334.3" font-family="Times,serif" font-size="14.00">User</text>
<polyline fill="none" stroke="black" points="620.053,-327.5 939.323,-327.5 "/>
<text text-anchor="start" x="628.053" y="-312.3" font-family="Times,serif" font-size="14.00">updated_at :timestamp without time zone</text>
<text text-anchor="start" x="628.053" y="-298.3" font-family="Times,serif" font-size="14.00">email :character varying</text>
<text text-anchor="start" x="628.053" y="-284.3" font-family="Times,serif" font-size="14.00">encrypted_password :character varying</text>
<text text-anchor="start" x="628.053" y="-270.3" font-family="Times,serif" font-size="14.00">reset_password_token :character varying</text>
<text text-anchor="start" x="628.053" y="-256.3" font-family="Times,serif" font-size="14.00">reset_password_sent_at :timestamp without time zone</text>
<text text-anchor="start" x="628.053" y="-242.3" font-family="Times,serif" font-size="14.00">remember_created_at :timestamp without time zone</text>
<text text-anchor="start" x="628.053" y="-228.3" font-family="Times,serif" font-size="14.00">sign_in_count :integer</text>
<text text-anchor="start" x="628.053" y="-214.3" font-family="Times,serif" font-size="14.00">current_sign_in_at :timestamp without time zone</text>
<text text-anchor="start" x="628.053" y="-200.3" font-family="Times,serif" font-size="14.00">last_sign_in_at :timestamp without time zone</text>
<text text-anchor="start" x="628.053" y="-186.3" font-family="Times,serif" font-size="14.00">current_sign_in_ip :inet</text>
<text text-anchor="start" x="628.053" y="-172.3" font-family="Times,serif" font-size="14.00">last_sign_in_ip :inet</text>
<text text-anchor="start" x="628.053" y="-158.3" font-family="Times,serif" font-size="14.00">created_at :timestamp without time zone</text>
<text text-anchor="start" x="628.053" y="-144.3" font-family="Times,serif" font-size="14.00">id :integer</text>
</g>
<!-- Product&#45;&gt;User -->
<g id="edge3" class="edge"><title>Product&#45;&gt;User</title>
<path fill="none" stroke="#d5e35a" d="M716.697,-377.182C719.535,-371.204 722.462,-365.04 725.428,-358.793"/>
<polygon fill="#d5e35a" stroke="#d5e35a" points="716.662,-377.257 708.308,-384.361 714.517,-381.774 712.373,-386.291 712.373,-386.291 712.373,-386.291 714.517,-381.774 716.438,-388.221 716.662,-377.257 716.662,-377.257"/>
<polygon fill="#d5e35a" stroke="#d5e35a" points="725.507,-358.626 733.861,-351.522 727.651,-354.109 729.796,-349.592 729.796,-349.592 729.796,-349.592 727.651,-354.109 725.73,-347.662 725.507,-358.626 725.507,-358.626"/>
</g>
<!-- User&#45;&gt;Order -->
<g id="edge4" class="edge"><title>User&#45;&gt;Order</title>
<path fill="none" stroke="#9151c3" d="M724.251,-129.858C720.925,-123.098 717.656,-116.458 714.516,-110.077"/>
<ellipse fill="none" stroke="#9151c3" cx="726.11" cy="-133.634" rx="4.00002" ry="4.00002"/>
<polygon fill="#9151c3" stroke="#9151c3" points="714.431,-109.903 714.052,-98.9437 712.223,-105.417 710.015,-100.931 710.015,-100.931 710.015,-100.931 712.223,-105.417 705.977,-102.918 714.431,-109.903 714.431,-109.903"/>
</g>
</g>
</svg>
