<?xml version="1.0" encoding="UTF-8" standalone="no"?>
<!DOCTYPE svg PUBLIC "-//W3C//DTD SVG 1.1//EN"
 "http://www.w3.org/Graphics/SVG/1.1/DTD/svg11.dtd">
<!-- Generated by graphviz version 2.38.0 (20140413.2041)
 -->
<!-- Title: models_diagram Pages: 1 -->
<svg width="452pt" height="297pt"
 viewBox="0.00 0.00 451.69 297.00" xmlns="http://www.w3.org/2000/svg" xmlns:xlink="http://www.w3.org/1999/xlink">
<g id="graph0" class="graph" transform="scale(1 1) rotate(0) translate(4 293)">
<title>models_diagram</title>
<polygon fill="none" stroke="none" points="-4,4 -4,-293 447.688,-293 447.688,4 -4,4"/>
<!-- _diagram_info -->
<g id="node1" class="node"><title>_diagram_info</title>
<text text-anchor="start" x="8" y="-274.6" font-family="Times,serif" font-size="13.00">Models diagram</text>
<text text-anchor="start" x="8" y="-261.6" font-family="Times,serif" font-size="13.00">Date: Aug 20 2016 &#45; 23:12</text>
<text text-anchor="start" x="8" y="-248.6" font-family="Times,serif" font-size="13.00">Migration version: 20160820005348</text>
<text text-anchor="start" x="8" y="-235.6" font-family="Times,serif" font-size="13.00">Generated by RailRoady 1.5.1</text>
<text text-anchor="start" x="8" y="-222.6" font-family="Times,serif" font-size="13.00">http://railroady.prestonlee.com</text>
</g>
<!-- AdminUser -->
<g id="node2" class="node"><title>AdminUser</title>
<ellipse fill="none" stroke="black" cx="276.688" cy="-252.5" rx="51.2415" ry="18"/>
<text text-anchor="middle" x="276.688" y="-248.3" font-family="Times,serif" font-size="14.00">AdminUser</text>
</g>
<!-- Category -->
<g id="node3" class="node"><title>Category</title>
<ellipse fill="none" stroke="black" cx="388.688" cy="-252.5" rx="42.5456" ry="18"/>
<text text-anchor="middle" x="388.688" y="-248.3" font-family="Times,serif" font-size="14.00">Category</text>
</g>
<!-- Product -->
<g id="node5" class="node"><title>Product</title>
<ellipse fill="none" stroke="black" cx="388.688" cy="-162" rx="37.7352" ry="18"/>
<text text-anchor="middle" x="388.688" y="-157.8" font-family="Times,serif" font-size="14.00">Product</text>
</g>
<!-- Category&#45;&gt;Product -->
<g id="edge1" class="edge"><title>Category&#45;&gt;Product</title>
<path fill="none" stroke="#49e2d2" d="M388.688,-226.189C388.688,-214.971 388.688,-201.752 388.688,-190.311"/>
<ellipse fill="none" stroke="#49e2d2" cx="388.688" cy="-230.436" rx="4" ry="4"/>
<polygon fill="#49e2d2" stroke="#49e2d2" points="388.688,-190.011 393.188,-180.011 388.688,-185.011 388.688,-180.011 388.688,-180.011 388.688,-180.011 388.688,-185.011 384.188,-180.011 388.688,-190.011 388.688,-190.011"/>
</g>
<!-- Order -->
<g id="node4" class="node"><title>Order</title>
<ellipse fill="none" stroke="black" cx="388.688" cy="-18" rx="30.9619" ry="18"/>
<text text-anchor="middle" x="388.688" y="-13.8" font-family="Times,serif" font-size="14.00">Order</text>
</g>
<!-- Product&#45;&gt;Order -->
<g id="edge2" class="edge"><title>Product&#45;&gt;Order</title>
<path fill="none" stroke="#24ecdb" d="M384.109,-135.884C382.717,-127.096 381.374,-117.142 380.688,-108 379.49,-92.0449 379.49,-87.9551 380.688,-72 381.324,-63.5179 382.526,-54.3361 383.809,-46.0356"/>
<ellipse fill="none" stroke="#24ecdb" cx="384.783" cy="-139.942" rx="4.00001" ry="4.00001"/>
<polygon fill="#24ecdb" stroke="#24ecdb" points="383.818,-45.9796 389.88,-36.8417 384.629,-41.0458 385.439,-36.1119 385.439,-36.1119 385.439,-36.1119 384.629,-41.0458 380.999,-35.3822 383.818,-45.9796 383.818,-45.9796"/>
</g>
<!-- User -->
<g id="node6" class="node"><title>User</title>
<ellipse fill="none" stroke="black" cx="416.688" cy="-90" rx="27" ry="18"/>
<text text-anchor="middle" x="416.688" y="-85.8" font-family="Times,serif" font-size="14.00">User</text>
</g>
<!-- Product&#45;&gt;User -->
<g id="edge3" class="edge"><title>Product&#45;&gt;User</title>
<path fill="none" stroke="#b24aab" d="M399.202,-134.714C401.457,-129.076 403.841,-123.116 406.099,-117.472"/>
<polygon fill="#b24aab" stroke="#b24aab" points="399.18,-134.77 391.288,-142.384 397.323,-139.413 395.466,-144.055 395.466,-144.055 395.466,-144.055 397.323,-139.413 399.644,-145.726 399.18,-134.77 399.18,-134.77"/>
<polygon fill="#b24aab" stroke="#b24aab" points="406.258,-117.074 414.15,-109.46 408.115,-112.431 409.972,-107.789 409.972,-107.789 409.972,-107.789 408.115,-112.431 405.794,-106.118 406.258,-117.074 406.258,-117.074"/>
</g>
<!-- User&#45;&gt;Order -->
<g id="edge4" class="edge"><title>User&#45;&gt;Order</title>
<path fill="none" stroke="#ed2114" d="M406.999,-64.7779C404.505,-58.544 401.81,-51.8046 399.273,-45.4634"/>
<ellipse fill="none" stroke="#ed2114" cx="408.567" cy="-68.6971" rx="4.00001" ry="4.00001"/>
<polygon fill="#ed2114" stroke="#ed2114" points="399.184,-45.241 399.648,-34.2849 397.327,-40.5986 395.47,-35.9562 395.47,-35.9562 395.47,-35.9562 397.327,-40.5986 391.292,-37.6275 399.184,-45.241 399.184,-45.241"/>
</g>
</g>
</svg>
